<svg width="221" height="82" viewBox="0 0 221 82" fill="none" xmlns="http://www.w3.org/2000/svg">
<path d="M13.8 6.952H41.246C41.6894 6.92107 42.1271 7.06627 42.4641 7.35609C42.8011 7.64591 43.0102 8.05696 43.046 8.5V27.272C43.0092 27.7146 42.7998 28.1251 42.4631 28.4147C42.1263 28.7043 41.6892 28.8499 41.246 28.82H30.014C29.9494 28.8201 29.8862 28.8389 29.832 28.874L24.07 32.674C23.9856 32.7389 23.8855 32.7801 23.7799 32.7935C23.6743 32.8069 23.5671 32.792 23.4691 32.7502C23.3712 32.7085 23.2862 32.6415 23.2227 32.556C23.1593 32.4706 23.1197 32.3698 23.108 32.264V29.078C23.1019 29.0042 23.067 28.9358 23.0108 28.8876C22.9547 28.8393 22.8819 28.815 22.808 28.82H13.8C13.3567 28.8504 12.9193 28.705 12.5824 28.4153C12.2455 28.1256 12.0363 27.7148 12 27.272V8.5C12.0368 8.05736 12.2462 7.64694 12.5829 7.35732C12.9197 7.06771 13.3568 6.92212 13.8 6.952Z" fill="url(#paint0_linear)"/>
<path opacity="0.8" d="M34.062 15.322C34.4674 15.322 34.8638 15.4423 35.2009 15.6675C35.538 15.8928 35.8008 16.2129 35.9559 16.5875C36.1111 16.9621 36.1517 17.3743 36.0726 17.772C35.9935 18.1696 35.7982 18.5349 35.5115 18.8216C35.2248 19.1083 34.8596 19.3035 34.4619 19.3826C34.0643 19.4617 33.6521 19.4211 33.2775 19.266C32.9029 19.1108 32.5827 18.8481 32.3575 18.5109C32.1322 18.1738 32.012 17.7775 32.012 17.372C32.012 16.8283 32.228 16.3069 32.6124 15.9225C32.9969 15.538 33.5183 15.322 34.062 15.322ZM25.474 17.4C25.476 17.805 25.5979 18.2004 25.8243 18.5362C26.0508 18.872 26.3716 19.1332 26.7464 19.2868C27.1211 19.4405 27.533 19.4796 27.93 19.3994C28.327 19.3192 28.6914 19.1232 28.977 18.8361C29.2627 18.549 29.457 18.1837 29.5353 17.7863C29.6136 17.3889 29.5724 16.9772 29.417 16.6032C29.2615 16.2292 28.9988 15.9096 28.6619 15.6848C28.325 15.46 27.929 15.34 27.524 15.34C27.2539 15.34 26.9865 15.3934 26.7372 15.497C26.4878 15.6007 26.2614 15.7526 26.0709 15.944C25.8804 16.1354 25.7296 16.3626 25.6271 16.6124C25.5247 16.8623 25.4727 17.13 25.474 17.4ZM18.934 17.4C18.936 17.805 19.0579 18.2004 19.2843 18.5362C19.5108 18.872 19.8316 19.1332 20.2064 19.2868C20.5811 19.4405 20.993 19.4796 21.39 19.3994C21.787 19.3192 22.1514 19.1232 22.4371 18.8361C22.7227 18.549 22.917 18.1837 22.9953 17.7863C23.0736 17.3889 23.0324 16.9772 22.877 16.6032C22.7215 16.2292 22.4588 15.9096 22.1219 15.6848C21.785 15.46 21.389 15.34 20.984 15.34C20.7139 15.34 20.4465 15.3934 20.1972 15.497C19.9478 15.6007 19.7214 15.7526 19.5309 15.944C19.3404 16.1354 19.1896 16.3626 19.0872 16.6124C18.9847 16.8623 18.9327 17.13 18.934 17.4Z" fill="white"/>
<path d="M39.852 33.048C44.352 33.048 48 29.4 48 24.9C48 20.4 44.352 16.752 39.852 16.752C35.352 16.752 31.704 20.4 31.704 24.9C31.704 29.4 35.352 33.048 39.852 33.048Z" fill="url(#paint1_linear)"/>
<path d="M44.328 29.276L43.254 27.648C43.1715 27.5187 43.0426 27.426 42.8938 27.3888C42.745 27.3516 42.5877 27.3728 42.454 27.448L41.684 27.862C41.6103 27.9019 41.5256 27.9168 41.4427 27.9045C41.3598 27.8923 41.2831 27.8535 41.224 27.794C40.716 27.2844 40.2548 26.7302 39.846 26.138L39.23 25.092C38.9258 24.4395 38.6815 23.7607 38.5 23.064C38.4803 22.9828 38.4865 22.8975 38.5177 22.82C38.5489 22.7426 38.6035 22.6768 38.674 22.632L39.42 22.178C39.5489 22.1003 39.6439 21.9769 39.6862 21.8325C39.7284 21.688 39.7148 21.5329 39.648 21.398L38.8 19.648C38.7344 19.5161 38.6203 19.4147 38.4816 19.3652C38.3429 19.3156 38.1904 19.3216 38.056 19.382C37.3119 19.812 36.7555 20.5047 36.496 21.324C35.792 22.954 37.056 24.872 37.99 26.504H38C38.934 28.136 39.952 30.196 41.712 30.416C42.55 30.6069 43.4291 30.477 44.176 30.052C44.2976 29.9681 44.3816 29.8399 44.41 29.6949C44.4384 29.5499 44.409 29.3996 44.328 29.276Z" fill="#0078D4"/>
<path d="M21.2627 53H19.4785L18.5967 50.5049H14.7412L13.8936 53H12.1162L15.7871 43.1973H17.6191L21.2627 53ZM18.166 49.1787L16.8057 45.2686C16.7646 45.141 16.7214 44.9359 16.6758 44.6533H16.6484C16.6074 44.9131 16.5618 45.1182 16.5117 45.2686L15.165 49.1787H18.166ZM27.6064 46.6631L23.8262 51.7627H27.5928V53H21.6045V52.4053L25.4668 47.2373H21.9736V46H27.6064V46.6631ZM35.0508 53H33.4648V51.8926H33.4375C32.9772 52.7402 32.2617 53.1641 31.291 53.1641C29.6367 53.1641 28.8096 52.1706 28.8096 50.1836V46H30.3955V50.0195C30.3955 51.2773 30.8809 51.9062 31.8516 51.9062C32.321 51.9062 32.7061 51.7331 33.0068 51.3867C33.3122 51.0404 33.4648 50.5869 33.4648 50.0264V46H35.0508V53ZM41.1826 47.5107C40.9912 47.3604 40.7155 47.2852 40.3555 47.2852C39.8861 47.2852 39.4941 47.4971 39.1797 47.9209C38.8652 48.3447 38.708 48.9212 38.708 49.6504V53H37.1221V46H38.708V47.4424H38.7354C38.8903 46.9502 39.1273 46.5674 39.4463 46.2939C39.7699 46.016 40.1299 45.877 40.5264 45.877C40.8135 45.877 41.0322 45.9202 41.1826 46.0068V47.5107ZM48.1074 49.9307H43.3359C43.3542 50.5778 43.5524 51.0768 43.9307 51.4277C44.3135 51.7786 44.8376 51.9541 45.5029 51.9541C46.2503 51.9541 46.9362 51.7308 47.5605 51.2842V52.5625C46.9225 52.9635 46.0794 53.1641 45.0312 53.1641C44.0013 53.1641 43.1924 52.8473 42.6045 52.2139C42.0212 51.5758 41.7295 50.6803 41.7295 49.5273C41.7295 48.4382 42.0508 47.5518 42.6934 46.8682C43.3405 46.18 44.1426 45.8359 45.0996 45.8359C46.0566 45.8359 46.7972 46.1436 47.3213 46.7588C47.8454 47.374 48.1074 48.2285 48.1074 49.3223V49.9307ZM46.5762 48.8096C46.5716 48.2399 46.4372 47.7979 46.1729 47.4834C45.9085 47.1644 45.5439 47.0049 45.0791 47.0049C44.6234 47.0049 44.236 47.1712 43.917 47.5039C43.6025 47.8366 43.4089 48.2718 43.3359 48.8096H46.5762ZM60.4873 52.5898C59.749 52.9727 58.8307 53.1641 57.7324 53.1641C56.3105 53.1641 55.1712 52.7152 54.3145 51.8174C53.4577 50.9196 53.0293 49.7415 53.0293 48.2832C53.0293 46.7155 53.5101 45.4486 54.4717 44.4824C55.4378 43.5163 56.6569 43.0332 58.1289 43.0332C59.0768 43.0332 59.863 43.1676 60.4873 43.4365V45.0498C59.8265 44.6579 59.0973 44.4619 58.2998 44.4619C57.238 44.4619 56.3766 44.8014 55.7158 45.4805C55.0596 46.1595 54.7314 47.0664 54.7314 48.2012C54.7314 49.2812 55.0391 50.1426 55.6543 50.7852C56.2695 51.4232 57.0785 51.7422 58.0811 51.7422C59.0062 51.7422 59.8083 51.5234 60.4873 51.0859V52.5898ZM65.2725 53.1641C64.1924 53.1641 63.3288 52.8382 62.6816 52.1865C62.0391 51.5303 61.7178 50.6621 61.7178 49.582C61.7178 48.4062 62.0527 47.488 62.7227 46.8271C63.3971 46.1663 64.304 45.8359 65.4434 45.8359C66.5371 45.8359 67.3893 46.1572 68 46.7998C68.6107 47.4424 68.916 48.3333 68.916 49.4727C68.916 50.5892 68.5856 51.4847 67.9248 52.1592C67.2686 52.8291 66.3844 53.1641 65.2725 53.1641ZM65.3477 47.1006C64.7279 47.1006 64.238 47.3171 63.8779 47.75C63.5179 48.1829 63.3379 48.7799 63.3379 49.541C63.3379 50.2747 63.5202 50.8535 63.8848 51.2773C64.2493 51.6966 64.737 51.9062 65.3477 51.9062C65.972 51.9062 66.4505 51.6989 66.7832 51.2842C67.1204 50.8695 67.2891 50.2793 67.2891 49.5137C67.2891 48.7435 67.1204 48.1488 66.7832 47.7295C66.4505 47.3102 65.972 47.1006 65.3477 47.1006ZM81.002 53H79.416V49.1855C79.416 48.4518 79.3112 47.9209 79.1016 47.5928C78.8965 47.2646 78.5479 47.1006 78.0557 47.1006C77.641 47.1006 77.2878 47.3079 76.9961 47.7227C76.709 48.1374 76.5654 48.6341 76.5654 49.2129V53H74.9727V49.0557C74.9727 47.7523 74.5124 47.1006 73.5918 47.1006C73.1634 47.1006 72.8102 47.2965 72.5322 47.6885C72.2588 48.0804 72.1221 48.5885 72.1221 49.2129V53H70.5361V46H72.1221V47.1074H72.1494C72.6553 46.2598 73.3913 45.8359 74.3574 45.8359C74.8405 45.8359 75.262 45.9704 75.6221 46.2393C75.9867 46.5036 76.235 46.8522 76.3672 47.2852C76.8867 46.319 77.6615 45.8359 78.6914 45.8359C80.2318 45.8359 81.002 46.7861 81.002 48.6865V53ZM93.4023 53H91.8164V49.1855C91.8164 48.4518 91.7116 47.9209 91.502 47.5928C91.2969 47.2646 90.9482 47.1006 90.4561 47.1006C90.0413 47.1006 89.6882 47.3079 89.3965 47.7227C89.1094 48.1374 88.9658 48.6341 88.9658 49.2129V53H87.373V49.0557C87.373 47.7523 86.9128 47.1006 85.9922 47.1006C85.5638 47.1006 85.2106 47.2965 84.9326 47.6885C84.6592 48.0804 84.5225 48.5885 84.5225 49.2129V53H82.9365V46H84.5225V47.1074H84.5498C85.0557 46.2598 85.7917 45.8359 86.7578 45.8359C87.2409 45.8359 87.6624 45.9704 88.0225 46.2393C88.387 46.5036 88.6354 46.8522 88.7676 47.2852C89.2871 46.319 90.0618 45.8359 91.0918 45.8359C92.6322 45.8359 93.4023 46.7861 93.4023 48.6865V53ZM101.441 53H99.8555V51.8926H99.8281C99.3678 52.7402 98.6523 53.1641 97.6816 53.1641C96.0273 53.1641 95.2002 52.1706 95.2002 50.1836V46H96.7861V50.0195C96.7861 51.2773 97.2715 51.9062 98.2422 51.9062C98.7116 51.9062 99.0967 51.7331 99.3975 51.3867C99.7028 51.0404 99.8555 50.5869 99.8555 50.0264V46H101.441V53ZM109.747 53H108.161V49.0557C108.161 47.7477 107.699 47.0938 106.773 47.0938C106.29 47.0938 105.892 47.276 105.577 47.6406C105.263 48.0007 105.105 48.4564 105.105 49.0078V53H103.513V46H105.105V47.1621H105.133C105.657 46.278 106.413 45.8359 107.402 45.8359C108.163 45.8359 108.744 46.0843 109.146 46.5811C109.547 47.0732 109.747 47.7865 109.747 48.7207V53ZM112.488 44.5303C112.229 44.5303 112.005 44.446 111.818 44.2773C111.636 44.1087 111.545 43.8945 111.545 43.6348C111.545 43.375 111.636 43.1585 111.818 42.9854C112.005 42.8122 112.229 42.7256 112.488 42.7256C112.757 42.7256 112.985 42.8122 113.172 42.9854C113.359 43.1585 113.452 43.375 113.452 43.6348C113.452 43.8809 113.359 44.0928 113.172 44.2705C112.985 44.4437 112.757 44.5303 112.488 44.5303ZM113.274 53H111.688V46H113.274V53ZM120.363 52.6787C119.803 53.0023 119.14 53.1641 118.374 53.1641C117.335 53.1641 116.496 52.8405 115.858 52.1934C115.22 51.5417 114.901 50.6986 114.901 49.6641C114.901 48.5111 115.243 47.5859 115.927 46.8887C116.615 46.1868 117.533 45.8359 118.682 45.8359C119.32 45.8359 119.882 45.9476 120.37 46.1709V47.6475C119.882 47.2829 119.363 47.1006 118.812 47.1006C118.142 47.1006 117.592 47.3285 117.164 47.7842C116.736 48.2354 116.521 48.8278 116.521 49.5615C116.521 50.2861 116.722 50.8581 117.123 51.2773C117.529 51.6966 118.071 51.9062 118.75 51.9062C119.32 51.9062 119.857 51.7035 120.363 51.2979V52.6787ZM127.315 53H125.777V51.9062H125.75C125.267 52.7448 124.558 53.1641 123.624 53.1641C122.936 53.1641 122.396 52.9772 122.004 52.6035C121.617 52.2298 121.423 51.7354 121.423 51.1201C121.423 49.7985 122.184 49.0283 123.706 48.8096L125.784 48.5156C125.784 47.5176 125.31 47.0186 124.362 47.0186C123.528 47.0186 122.776 47.3057 122.106 47.8799V46.4922C122.845 46.0547 123.697 45.8359 124.663 45.8359C126.431 45.8359 127.315 46.7064 127.315 48.4473V53ZM125.784 49.5615L124.314 49.7666C123.859 49.8258 123.515 49.9375 123.282 50.1016C123.054 50.2611 122.94 50.5436 122.94 50.9492C122.94 51.2454 123.045 51.4893 123.255 51.6807C123.469 51.8675 123.754 51.9609 124.109 51.9609C124.592 51.9609 124.991 51.7923 125.306 51.4551C125.625 51.1133 125.784 50.6849 125.784 50.1699V49.5615ZM132.948 52.9248C132.638 53.0798 132.23 53.1572 131.725 53.1572C130.367 53.1572 129.688 52.5055 129.688 51.2021V47.2441H128.519V46H129.688V44.3799L131.273 43.9287V46H132.948V47.2441H131.273V50.7441C131.273 51.1589 131.349 51.4551 131.499 51.6328C131.649 51.8105 131.9 51.8994 132.251 51.8994C132.52 51.8994 132.752 51.8219 132.948 51.667V52.9248ZM135.115 44.5303C134.855 44.5303 134.632 44.446 134.445 44.2773C134.263 44.1087 134.172 43.8945 134.172 43.6348C134.172 43.375 134.263 43.1585 134.445 42.9854C134.632 42.8122 134.855 42.7256 135.115 42.7256C135.384 42.7256 135.612 42.8122 135.799 42.9854C135.986 43.1585 136.079 43.375 136.079 43.6348C136.079 43.8809 135.986 44.0928 135.799 44.2705C135.612 44.4437 135.384 44.5303 135.115 44.5303ZM135.901 53H134.315V46H135.901V53ZM141.083 53.1641C140.003 53.1641 139.139 52.8382 138.492 52.1865C137.85 51.5303 137.528 50.6621 137.528 49.582C137.528 48.4062 137.863 47.488 138.533 46.8271C139.208 46.1663 140.115 45.8359 141.254 45.8359C142.348 45.8359 143.2 46.1572 143.811 46.7998C144.421 47.4424 144.727 48.3333 144.727 49.4727C144.727 50.5892 144.396 51.4847 143.735 52.1592C143.079 52.8291 142.195 53.1641 141.083 53.1641ZM141.158 47.1006C140.538 47.1006 140.049 47.3171 139.688 47.75C139.328 48.1829 139.148 48.7799 139.148 49.541C139.148 50.2747 139.331 50.8535 139.695 51.2773C140.06 51.6966 140.548 51.9062 141.158 51.9062C141.783 51.9062 142.261 51.6989 142.594 51.2842C142.931 50.8695 143.1 50.2793 143.1 49.5137C143.1 48.7435 142.931 48.1488 142.594 47.7295C142.261 47.3102 141.783 47.1006 141.158 47.1006ZM152.581 53H150.995V49.0557C150.995 47.7477 150.533 47.0938 149.607 47.0938C149.124 47.0938 148.726 47.276 148.411 47.6406C148.097 48.0007 147.939 48.4564 147.939 49.0078V53H146.347V46H147.939V47.1621H147.967C148.491 46.278 149.247 45.8359 150.236 45.8359C150.997 45.8359 151.578 46.0843 151.979 46.5811C152.381 47.0732 152.581 47.7865 152.581 48.7207V53ZM158.104 52.6104V50.9355C158.255 51.0723 158.433 51.1953 158.638 51.3047C158.847 51.4141 159.068 51.5075 159.301 51.585C159.533 51.6579 159.766 51.7148 159.998 51.7559C160.23 51.7969 160.445 51.8174 160.641 51.8174C161.324 51.8174 161.832 51.7035 162.165 51.4756C162.502 51.2477 162.671 50.9173 162.671 50.4844C162.671 50.252 162.614 50.0514 162.5 49.8828C162.391 49.7096 162.236 49.5524 162.035 49.4111C161.835 49.2699 161.598 49.1354 161.324 49.0078C161.055 48.8757 160.766 48.7389 160.456 48.5977C160.123 48.4199 159.813 48.2399 159.526 48.0576C159.239 47.8753 158.989 47.6748 158.774 47.4561C158.565 47.2327 158.398 46.9821 158.275 46.7041C158.157 46.4261 158.098 46.1003 158.098 45.7266C158.098 45.2663 158.2 44.8675 158.405 44.5303C158.615 44.1885 158.888 43.9082 159.226 43.6895C159.567 43.4661 159.955 43.3021 160.388 43.1973C160.821 43.0879 161.263 43.0332 161.714 43.0332C162.739 43.0332 163.487 43.1494 163.956 43.3818V44.9883C163.4 44.5872 162.685 44.3867 161.81 44.3867C161.568 44.3867 161.326 44.4095 161.085 44.4551C160.848 44.5007 160.634 44.5758 160.442 44.6807C160.256 44.7855 160.103 44.9199 159.984 45.084C159.866 45.248 159.807 45.4463 159.807 45.6787C159.807 45.8975 159.852 46.0866 159.943 46.2461C160.035 46.4056 160.167 46.5514 160.34 46.6836C160.518 46.8158 160.732 46.9456 160.982 47.0732C161.238 47.1963 161.532 47.3307 161.864 47.4766C162.206 47.6543 162.527 47.8411 162.828 48.0371C163.133 48.2331 163.4 48.4495 163.628 48.6865C163.86 48.9235 164.043 49.1878 164.175 49.4795C164.312 49.7666 164.38 50.0947 164.38 50.4639C164.38 50.9606 164.28 51.3799 164.079 51.7217C163.879 52.0635 163.607 52.3415 163.266 52.5557C162.928 52.7699 162.539 52.9248 162.097 53.0205C161.655 53.1162 161.188 53.1641 160.695 53.1641C160.531 53.1641 160.328 53.1504 160.087 53.123C159.85 53.1003 159.606 53.0638 159.355 53.0137C159.105 52.9681 158.868 52.9111 158.645 52.8428C158.421 52.7744 158.241 52.6969 158.104 52.6104ZM171.934 49.9307H167.162C167.18 50.5778 167.379 51.0768 167.757 51.4277C168.14 51.7786 168.664 51.9541 169.329 51.9541C170.076 51.9541 170.762 51.7308 171.387 51.2842V52.5625C170.749 52.9635 169.906 53.1641 168.857 53.1641C167.827 53.1641 167.019 52.8473 166.431 52.2139C165.847 51.5758 165.556 50.6803 165.556 49.5273C165.556 48.4382 165.877 47.5518 166.52 46.8682C167.167 46.18 167.969 45.8359 168.926 45.8359C169.883 45.8359 170.623 46.1436 171.147 46.7588C171.672 47.374 171.934 48.2285 171.934 49.3223V49.9307ZM170.402 48.8096C170.398 48.2399 170.263 47.7979 169.999 47.4834C169.735 47.1644 169.37 47.0049 168.905 47.0049C168.45 47.0049 168.062 47.1712 167.743 47.5039C167.429 47.8366 167.235 48.2718 167.162 48.8096H170.402ZM177.505 47.5107C177.313 47.3604 177.038 47.2852 176.678 47.2852C176.208 47.2852 175.816 47.4971 175.502 47.9209C175.188 48.3447 175.03 48.9212 175.03 49.6504V53H173.444V46H175.03V47.4424H175.058C175.213 46.9502 175.45 46.5674 175.769 46.2939C176.092 46.016 176.452 45.877 176.849 45.877C177.136 45.877 177.354 45.9202 177.505 46.0068V47.5107ZM185.216 46L182.509 53H180.793L178.216 46H179.938L181.49 50.8945C181.609 51.2546 181.682 51.569 181.709 51.8379H181.729C181.771 51.5007 181.834 51.1953 181.921 50.9219L183.548 46H185.216ZM187.096 44.5303C186.836 44.5303 186.613 44.446 186.426 44.2773C186.243 44.1087 186.152 43.8945 186.152 43.6348C186.152 43.375 186.243 43.1585 186.426 42.9854C186.613 42.8122 186.836 42.7256 187.096 42.7256C187.365 42.7256 187.592 42.8122 187.779 42.9854C187.966 43.1585 188.06 43.375 188.06 43.6348C188.06 43.8809 187.966 44.0928 187.779 44.2705C187.592 44.4437 187.365 44.5303 187.096 44.5303ZM187.882 53H186.296V46H187.882V53ZM194.971 52.6787C194.41 53.0023 193.747 53.1641 192.981 53.1641C191.942 53.1641 191.104 52.8405 190.466 52.1934C189.828 51.5417 189.509 50.6986 189.509 49.6641C189.509 48.5111 189.851 47.5859 190.534 46.8887C191.222 46.1868 192.141 45.8359 193.289 45.8359C193.927 45.8359 194.49 45.9476 194.978 46.1709V47.6475C194.49 47.2829 193.97 47.1006 193.419 47.1006C192.749 47.1006 192.2 47.3285 191.771 47.7842C191.343 48.2354 191.129 48.8278 191.129 49.5615C191.129 50.2861 191.329 50.8581 191.73 51.2773C192.136 51.6966 192.678 51.9062 193.357 51.9062C193.927 51.9062 194.465 51.7035 194.971 51.2979V52.6787ZM202.477 49.9307H197.705C197.723 50.5778 197.922 51.0768 198.3 51.4277C198.683 51.7786 199.207 51.9541 199.872 51.9541C200.619 51.9541 201.305 51.7308 201.93 51.2842V52.5625C201.292 52.9635 200.449 53.1641 199.4 53.1641C198.37 53.1641 197.562 52.8473 196.974 52.2139C196.39 51.5758 196.099 50.6803 196.099 49.5273C196.099 48.4382 196.42 47.5518 197.062 46.8682C197.71 46.18 198.512 45.8359 199.469 45.8359C200.426 45.8359 201.166 46.1436 201.69 46.7588C202.215 47.374 202.477 48.2285 202.477 49.3223V49.9307ZM200.945 48.8096C200.941 48.2399 200.806 47.7979 200.542 47.4834C200.278 47.1644 199.913 47.0049 199.448 47.0049C198.993 47.0049 198.605 47.1712 198.286 47.5039C197.972 47.8366 197.778 48.2718 197.705 48.8096H200.945ZM203.55 52.7812V51.3115C204.142 51.7627 204.796 51.9883 205.512 51.9883C206.469 51.9883 206.947 51.7057 206.947 51.1406C206.947 50.9811 206.906 50.8467 206.824 50.7373C206.742 50.6234 206.631 50.5231 206.489 50.4365C206.353 50.3499 206.188 50.2725 205.997 50.2041C205.81 50.1357 205.601 50.0583 205.368 49.9717C205.081 49.8577 204.821 49.737 204.589 49.6094C204.361 49.4818 204.17 49.3382 204.015 49.1787C203.864 49.0146 203.75 48.8301 203.673 48.625C203.595 48.4199 203.557 48.1807 203.557 47.9072C203.557 47.57 203.636 47.2738 203.796 47.0186C203.955 46.7588 204.17 46.5423 204.438 46.3691C204.707 46.1914 205.013 46.0592 205.354 45.9727C205.696 45.8815 206.049 45.8359 206.414 45.8359C207.061 45.8359 207.64 45.9339 208.15 46.1299V47.5176C207.658 47.1803 207.093 47.0117 206.455 47.0117C206.255 47.0117 206.072 47.0322 205.908 47.0732C205.749 47.1143 205.612 47.1712 205.498 47.2441C205.384 47.3171 205.295 47.4059 205.231 47.5107C205.168 47.611 205.136 47.7227 205.136 47.8457C205.136 47.9961 205.168 48.1237 205.231 48.2285C205.295 48.3333 205.389 48.4268 205.512 48.5088C205.639 48.5863 205.79 48.6592 205.963 48.7275C206.141 48.7913 206.343 48.862 206.571 48.9395C206.872 49.0625 207.141 49.1878 207.378 49.3154C207.619 49.443 207.825 49.5889 207.993 49.7529C208.162 49.9124 208.292 50.0993 208.383 50.3135C208.474 50.5231 208.52 50.7738 208.52 51.0654C208.52 51.4209 208.438 51.7308 208.273 51.9951C208.109 52.2594 207.891 52.4782 207.617 52.6514C207.344 52.8245 207.027 52.9521 206.667 53.0342C206.312 53.1208 205.936 53.1641 205.539 53.1641C204.773 53.1641 204.11 53.0365 203.55 52.7812Z" fill="#323130"/>
<path d="M20.75 67.0352C20.75 69.7878 19.4466 71.1641 16.8398 71.1641C14.3424 71.1641 13.0938 69.8402 13.0938 67.1924V61.1973H14.7207V66.8574C14.7207 68.7806 15.4681 69.7422 16.9629 69.7422C18.403 69.7422 19.123 68.8148 19.123 66.96V61.1973H20.75V67.0352ZM24.7217 71H23.0469V61.1973H24.7217V71ZM36.4248 71H30.9971V61.1973H32.624V69.626H36.4248V71ZM38.4688 62.5303C38.209 62.5303 37.9857 62.446 37.7988 62.2773C37.6165 62.1087 37.5254 61.8945 37.5254 61.6348C37.5254 61.375 37.6165 61.1585 37.7988 60.9854C37.9857 60.8122 38.209 60.7256 38.4688 60.7256C38.7376 60.7256 38.9655 60.8122 39.1523 60.9854C39.3392 61.1585 39.4326 61.375 39.4326 61.6348C39.4326 61.8809 39.3392 62.0928 39.1523 62.2705C38.9655 62.4437 38.7376 62.5303 38.4688 62.5303ZM39.2549 71H37.6689V64H39.2549V71ZM42.9463 69.9883H42.9189V71H41.333V60.6367H42.9189V65.2305H42.9463C43.4886 64.3008 44.2816 63.8359 45.3252 63.8359C46.2093 63.8359 46.8997 64.1504 47.3965 64.7793C47.8978 65.4036 48.1484 66.2422 48.1484 67.2949C48.1484 68.4661 47.8682 69.4049 47.3076 70.1113C46.7471 70.8132 45.9814 71.1641 45.0107 71.1641C44.0993 71.1641 43.4111 70.7721 42.9463 69.9883ZM42.9053 67.2061V68.0742C42.9053 68.5846 43.0671 69.0176 43.3906 69.373C43.7188 69.7285 44.1335 69.9062 44.6348 69.9062C45.2227 69.9062 45.6829 69.6784 46.0156 69.2227C46.3529 68.7624 46.5215 68.1221 46.5215 67.3018C46.5215 66.6136 46.3643 66.0758 46.0498 65.6885C45.7399 65.2965 45.3184 65.1006 44.7852 65.1006C44.2201 65.1006 43.7643 65.3011 43.418 65.7021C43.0762 66.1032 42.9053 66.6045 42.9053 67.2061ZM53.8291 65.5107C53.6377 65.3604 53.362 65.2852 53.002 65.2852C52.5326 65.2852 52.1406 65.4971 51.8262 65.9209C51.5117 66.3447 51.3545 66.9212 51.3545 67.6504V71H49.7686V64H51.3545V65.4424H51.3818C51.5368 64.9502 51.7738 64.5674 52.0928 64.2939C52.4163 64.016 52.7764 63.877 53.1729 63.877C53.46 63.877 53.6787 63.9202 53.8291 64.0068V65.5107ZM60.3232 71H58.7852V69.9062H58.7578C58.2747 70.7448 57.5661 71.1641 56.6318 71.1641C55.9437 71.1641 55.4036 70.9772 55.0117 70.6035C54.6243 70.2298 54.4307 69.7354 54.4307 69.1201C54.4307 67.7985 55.1917 67.0283 56.7139 66.8096L58.792 66.5156C58.792 65.5176 58.318 65.0186 57.3701 65.0186C56.5361 65.0186 55.7842 65.3057 55.1143 65.8799V64.4922C55.8525 64.0547 56.7048 63.8359 57.6709 63.8359C59.4391 63.8359 60.3232 64.7064 60.3232 66.4473V71ZM58.792 67.5615L57.3223 67.7666C56.8665 67.8258 56.5225 67.9375 56.29 68.1016C56.0622 68.2611 55.9482 68.5436 55.9482 68.9492C55.9482 69.2454 56.0531 69.4893 56.2627 69.6807C56.4769 69.8675 56.7617 69.9609 57.1172 69.9609C57.6003 69.9609 57.999 69.7923 58.3135 69.4551C58.6325 69.1133 58.792 68.6849 58.792 68.1699V67.5615ZM66.3252 65.5107C66.1338 65.3604 65.8581 65.2852 65.498 65.2852C65.0286 65.2852 64.6367 65.4971 64.3223 65.9209C64.0078 66.3447 63.8506 66.9212 63.8506 67.6504V71H62.2646V64H63.8506V65.4424H63.8779C64.0329 64.9502 64.2699 64.5674 64.5889 64.2939C64.9124 64.016 65.2725 63.877 65.6689 63.877C65.9561 63.877 66.1748 63.9202 66.3252 64.0068V65.5107ZM74.0703 64L70.9121 72.1211C70.2559 73.5703 69.3353 74.2949 68.1504 74.2949C67.8177 74.2949 67.5397 74.2653 67.3164 74.2061V72.8867C67.5671 72.9688 67.7949 73.0098 68 73.0098C68.5924 73.0098 69.0345 72.7181 69.3262 72.1348L69.7979 70.9863L67.0156 64H68.7725L70.4404 69.0859C70.4587 69.1497 70.4997 69.3184 70.5635 69.5918H70.5977C70.6204 69.487 70.6615 69.3229 70.7207 69.0996L72.4707 64H74.0703Z" fill="#0078D4"/>
<defs>
<linearGradient id="paint0_linear" x1="27.524" y1="6.952" x2="27.524" y2="32.782" gradientUnits="userSpaceOnUse">
<stop offset="0.002" stop-color="#A67AF4"/>
<stop offset="1" stop-color="#773ADC"/>
</linearGradient>
<linearGradient id="paint1_linear" x1="39.852" y1="16.752" x2="39.852" y2="33.048" gradientUnits="userSpaceOnUse">
<stop stop-color="#C3F1FF"/>
<stop offset="1" stop-color="#50E6FF"/>
</linearGradient>
</defs>
</svg>
