<svg width="343" height="276" viewBox="0 0 343 276" fill="none" xmlns="http://www.w3.org/2000/svg">
<g clip-path="url(#clip0_3898_22264)">
<path fill-rule="evenodd" clip-rule="evenodd" d="M271.933 75.0365C281.926 75.0365 290.027 82.2881 290.027 91.2335V204.877C290.027 213.823 281.926 221.074 271.933 221.074L203.694 221.074L171.953 246.732C169.636 248.605 166.06 248.442 163.967 246.367C163.029 245.437 162.509 244.228 162.509 242.975L162.508 221.074L92.1217 221.074C82.1285 221.074 74.0275 213.823 74.0275 204.877V91.2335C74.0275 82.2881 82.1285 75.0365 92.1217 75.0365H271.933Z" fill="#464443"/>
<path opacity="0.5" d="M277.51 171.14L272.775 176.695L267.212 171.785C253.03 159.267 231.713 160.612 219.6 174.789C207.487 188.967 209.164 210.608 223.346 223.127L276.691 270.213C278.67 271.96 281.645 271.772 283.335 269.794L328.935 216.456C341.015 202.236 339.365 180.654 325.18 168.133C310.972 155.592 289.645 156.937 277.51 171.14Z" fill="#72706E"/>
<path opacity="0.603413" d="M323.167 60.1992L323.686 60.1643C325.622 60.1643 327.222 61.6031 327.475 63.4699L327.51 63.9889V67.8135H331.334C333.27 67.8135 334.87 69.2524 335.124 71.1192L335.159 71.6382C335.159 73.5745 333.72 75.1747 331.853 75.4279L331.334 75.4628H327.51V79.2875C327.51 81.2237 326.071 82.824 324.204 83.0772L323.686 83.1121C321.749 83.1121 320.149 81.6733 319.896 79.8065L319.861 79.2875V75.4628H316.037C314.101 75.4628 312.501 74.024 312.247 72.1572L312.213 71.6382C312.213 69.7019 313.651 68.1017 315.518 67.8485L316.037 67.8135H319.861V63.9889C319.861 62.0526 321.3 60.4524 323.167 60.1992L323.686 60.1643L323.167 60.1992ZM305.564 27.0714L306.083 27.0365C308.019 27.0365 309.619 28.4754 309.873 30.3422L309.908 30.8611V34.6858H313.732C315.668 34.6858 317.268 36.1246 317.521 37.9915L317.556 38.5104C317.556 40.4467 316.117 42.0469 314.251 42.3002L313.732 42.3351H309.908V46.1597C309.908 48.096 308.469 49.6962 306.602 49.9495L306.083 49.9844C304.147 49.9844 302.547 48.5455 302.294 46.6787L302.259 46.1597V42.3351H298.434C296.498 42.3351 294.898 40.8962 294.645 39.0294L294.61 38.5104C294.61 36.5742 296.049 34.974 297.916 34.7207L298.434 34.6858H302.259V30.8611C302.259 28.9249 303.698 27.3247 305.564 27.0714L306.083 27.0365L305.564 27.0714ZM83.9815 237.227L84.5005 237.191C86.4366 237.191 88.0367 238.698 88.2899 240.654L88.3248 241.197V245.204H92.1492C94.0853 245.204 95.6853 246.712 95.9386 248.667L95.9735 249.211C95.9735 251.239 94.5348 252.916 92.6681 253.181L92.1492 253.218H88.3248V257.225C88.3248 259.253 86.8861 260.929 85.0194 261.195L84.5005 261.231C82.5644 261.231 80.9643 259.724 80.7111 257.768L80.6761 257.225V253.218H76.8518C74.9157 253.218 73.3156 251.71 73.0624 249.755L73.0275 249.211C73.0275 247.183 74.4662 245.506 76.3329 245.241L76.8518 245.204H80.6761V241.197C80.6761 239.169 82.1149 237.493 83.9815 237.227L84.5005 237.191L83.9815 237.227Z" fill="#4E4D4B"/>
<path opacity="0.5" d="M91.2349 61.4827C95.2003 51.6616 97.49 42.99 98.0761 35.4254C99.3815 18.5789 93.8894 5.18472 83.0877 4.50305C77.2281 4.13327 75.1403 7.56023 72.195 16.144C72.3489 15.6955 70.7228 20.5253 70.2563 21.8174C69.3626 24.2928 67.8138 28.5055 65.613 34.4469C65.5541 34.6061 65.4741 34.7545 65.3744 34.8899L43.0956 65.1419C37.8262 72.2971 30.4593 77.5877 22.0773 80.2361L13.1154 83.0677C7.46005 84.8546 3.82111 90.4805 4.48632 96.4085L7.30881 121.561C7.99634 127.688 12.1438 132.791 17.9314 134.632L73.917 152.435C91.0951 157.897 109.634 148.234 115.464 130.78L129.714 88.1146C133.112 77.9423 127.776 67.0387 117.796 63.7606C116.29 63.266 114.726 62.9652 113.141 62.8651L91.2349 61.4827Z" fill="#72706E"/>
</g>
<defs>
<clipPath id="clip0_3898_22264">
<rect width="342.934" height="275.352" fill="white"/>
</clipPath>
</defs>
</svg>
