<svg width="36" height="36" viewBox="0 0 36 36" fill="none" xmlns="http://www.w3.org/2000/svg">
<path d="M1.8 4.952H29.246C29.6894 4.92107 30.1271 5.06627 30.4641 5.35609C30.8011 5.64591 31.0102 6.05696 31.046 6.5V25.272C31.0092 25.7146 30.7998 26.1251 30.4631 26.4147C30.1263 26.7043 29.6892 26.8499 29.246 26.82H18.014C17.9494 26.8201 17.8862 26.8389 17.832 26.874L12.07 30.674C11.9856 30.7389 11.8855 30.7801 11.7799 30.7935C11.6743 30.8069 11.5671 30.792 11.4691 30.7502C11.3712 30.7085 11.2862 30.6415 11.2227 30.556C11.1593 30.4706 11.1197 30.3698 11.108 30.264V27.078C11.1019 27.0042 11.067 26.9358 11.0108 26.8876C10.9547 26.8393 10.8819 26.815 10.808 26.82H1.8C1.35671 26.8504 0.919288 26.705 0.582407 26.4153C0.245525 26.1256 0.0362924 25.7148 0 25.272L0 6.5C0.0367956 6.05736 0.246171 5.64694 0.582934 5.35732C0.919696 5.06771 1.35684 4.92212 1.8 4.952Z" fill="url(#paint0_linear)"/>
<path opacity="0.8" d="M22.062 13.322C22.4674 13.322 22.8638 13.4423 23.2009 13.6675C23.538 13.8928 23.8008 14.2129 23.9559 14.5875C24.1111 14.9621 24.1517 15.3743 24.0726 15.772C23.9935 16.1696 23.7982 16.5349 23.5115 16.8216C23.2248 17.1083 22.8596 17.3035 22.4619 17.3826C22.0643 17.4617 21.6521 17.4211 21.2775 17.266C20.9029 17.1108 20.5827 16.8481 20.3575 16.5109C20.1322 16.1738 20.012 15.7775 20.012 15.372C20.012 14.8283 20.228 14.3069 20.6124 13.9225C20.9969 13.538 21.5183 13.322 22.062 13.322ZM13.474 15.4C13.476 15.805 13.5979 16.2004 13.8243 16.5362C14.0508 16.872 14.3716 17.1332 14.7464 17.2868C15.1211 17.4405 15.533 17.4796 15.93 17.3994C16.327 17.3192 16.6914 17.1232 16.977 16.8361C17.2627 16.549 17.457 16.1837 17.5353 15.7863C17.6136 15.3889 17.5724 14.9772 17.417 14.6032C17.2615 14.2292 16.9988 13.9096 16.6619 13.6848C16.325 13.46 15.929 13.34 15.524 13.34C15.2539 13.34 14.9865 13.3934 14.7372 13.497C14.4878 13.6007 14.2614 13.7526 14.0709 13.944C13.8804 14.1354 13.7296 14.3626 13.6271 14.6124C13.5247 14.8623 13.4727 15.13 13.474 15.4ZM6.93398 15.4C6.93596 15.805 7.05787 16.2004 7.28432 16.5362C7.51078 16.872 7.83163 17.1332 8.20639 17.2868C8.58115 17.4405 8.99301 17.4796 9.39001 17.3994C9.78701 17.3192 10.1514 17.1232 10.4371 16.8361C10.7227 16.549 10.917 16.1837 10.9953 15.7863C11.0736 15.3889 11.0324 14.9772 10.877 14.6032C10.7215 14.2292 10.4588 13.9096 10.1219 13.6848C9.78496 13.46 9.38901 13.34 8.98398 13.34C8.71393 13.34 8.44654 13.3934 8.19717 13.497C7.9478 13.6007 7.72136 13.7526 7.53087 13.944C7.34038 14.1354 7.18958 14.3626 7.08715 14.6124C6.98472 14.8623 6.93267 15.13 6.93398 15.4Z" fill="white"/>
<path d="M27.852 31.048C32.352 31.048 36 27.4 36 22.9C36 18.4 32.352 14.752 27.852 14.752C23.352 14.752 19.704 18.4 19.704 22.9C19.704 27.4 23.352 31.048 27.852 31.048Z" fill="url(#paint1_linear)"/>
<path d="M32.328 27.276L31.254 25.648C31.1715 25.5187 31.0426 25.426 30.8938 25.3888C30.745 25.3516 30.5877 25.3728 30.454 25.448L29.684 25.862C29.6103 25.9019 29.5256 25.9168 29.4427 25.9045C29.3598 25.8923 29.2831 25.8535 29.224 25.794C28.716 25.2844 28.2548 24.7302 27.846 24.138L27.23 23.092C26.9258 22.4395 26.6815 21.7607 26.5 21.064C26.4803 20.9828 26.4865 20.8975 26.5177 20.82C26.5489 20.7426 26.6035 20.6768 26.674 20.632L27.42 20.178C27.5489 20.1003 27.6439 19.9769 27.6862 19.8325C27.7284 19.688 27.7148 19.5329 27.648 19.398L26.8 17.648C26.7344 17.5161 26.6203 17.4147 26.4816 17.3652C26.3429 17.3156 26.1904 17.3216 26.056 17.382C25.3119 17.812 24.7555 18.5047 24.496 19.324C23.792 20.954 25.056 22.872 25.99 24.504H26C26.934 26.136 27.952 28.196 29.712 28.416C30.55 28.6069 31.4291 28.477 32.176 28.052C32.2976 27.9681 32.3816 27.8399 32.41 27.6949C32.4384 27.5499 32.409 27.3996 32.328 27.276Z" fill="#0078D4"/>
<defs>
<linearGradient id="paint0_linear" x1="15.524" y1="4.952" x2="15.524" y2="30.782" gradientUnits="userSpaceOnUse">
<stop offset="0.002" stop-color="#A67AF4"/>
<stop offset="1" stop-color="#773ADC"/>
</linearGradient>
<linearGradient id="paint1_linear" x1="27.852" y1="14.752" x2="27.852" y2="31.048" gradientUnits="userSpaceOnUse">
<stop stop-color="#C3F1FF"/>
<stop offset="1" stop-color="#50E6FF"/>
</linearGradient>
</defs>
</svg>
