<svg width="375" height="84" viewBox="0 0 375 84" fill="none" xmlns="http://www.w3.org/2000/svg">
<g filter="url(#filter0_bd_2242_13794)">
<path fill-rule="evenodd" clip-rule="evenodd" d="M0 1H375V84H0V1Z" fill="#F9F9F9" fill-opacity="0.94"/>
</g>
<rect x="121" y="70" width="134" height="5" rx="2.5" fill="black" fill-opacity="0.8"/>
<path d="M336.961 28.626H338.858V30.3896C338.858 32.502 339.935 33.5684 342.078 33.5684H353.029C355.172 33.5684 356.249 32.502 356.249 30.3896V19.4897C356.249 17.3877 355.172 16.3213 353.029 16.3213H351.132V14.6602C351.132 12.5479 350.045 11.4814 347.912 11.4814H336.961C334.808 11.4814 333.741 12.5479 333.741 14.6602V25.4575C333.741 27.5698 334.808 28.626 336.961 28.626ZM336.981 26.9751C335.956 26.9751 335.392 26.4316 335.392 25.3652V14.7524C335.392 13.686 335.956 13.1323 336.981 13.1323H347.881C348.896 13.1323 349.481 13.686 349.481 14.7524V16.3213H342.078C339.935 16.3213 338.858 17.3774 338.858 19.4897V26.9751H336.981ZM342.108 31.9175C341.083 31.9175 340.509 31.3638 340.509 30.2974V19.582C340.509 18.5156 341.083 17.9722 342.108 17.9722H353.008C354.023 17.9722 354.598 18.5156 354.598 19.582V30.3076C354.598 31.3638 354.023 31.9175 353.008 31.9175H342.108Z" fill="#2E7CF6"/>
<path d="M265.99 15.3779C265.21 14.3936 263.272 13.522 261.109 13.522C258.269 13.522 255.972 14.9883 255.408 16.3623V30.687C255.408 31.4663 255.91 31.7637 256.474 31.7637C256.915 31.7637 257.182 31.6304 257.458 31.415C258.043 30.9126 259.222 30.2358 261.109 30.2358C263.006 30.2358 264.329 30.8921 264.841 31.3535C265.108 31.5688 265.426 31.7637 265.99 31.7637C266.554 31.7637 266.872 31.5483 267.138 31.3535C267.692 30.9229 268.984 30.2358 270.871 30.2358C272.768 30.2358 273.947 30.9229 274.531 31.415C274.808 31.6304 275.064 31.7637 275.505 31.7637C276.069 31.7637 276.582 31.4663 276.582 30.687V16.3623C276.018 14.9883 273.711 13.522 270.871 13.522C268.717 13.522 266.779 14.3936 265.99 15.3779ZM257.059 16.8545C257.294 16.2188 258.781 15.0703 261.109 15.0703C263.447 15.0703 264.964 16.229 265.169 16.8545V29.8257C264.195 29.0977 262.708 28.6875 261.109 28.6875C259.52 28.6875 258.033 29.0977 257.059 29.8667V16.8545ZM274.931 16.8545V29.8667C273.947 29.0977 272.47 28.6875 270.871 28.6875C269.271 28.6875 267.794 29.0977 266.82 29.8257V16.8545C267.025 16.229 268.543 15.0703 270.871 15.0703C273.208 15.0703 274.695 16.2188 274.931 16.8545Z" fill="#2E7CF6"/>
<path d="M188 25.3857C188.441 25.3857 188.81 25.0166 188.81 24.5859V14.0552L188.749 12.5171L189.436 13.2451L190.994 14.9062C191.138 15.0703 191.353 15.1523 191.548 15.1523C191.968 15.1523 192.296 14.8447 192.296 14.4243C192.296 14.209 192.204 14.0449 192.05 13.8911L188.584 10.5483C188.379 10.3433 188.205 10.2715 188 10.2715C187.785 10.2715 187.61 10.3433 187.405 10.5483L183.939 13.8911C183.786 14.0449 183.693 14.209 183.693 14.4243C183.693 14.8447 184.001 15.1523 184.432 15.1523C184.626 15.1523 184.852 15.0703 184.996 14.9062L186.554 13.2451L187.241 12.5171L187.18 14.0552V24.5859C187.18 25.0166 187.559 25.3857 188 25.3857ZM182.114 33.4146H193.875C196.019 33.4146 197.095 32.3481 197.095 30.2358V20.0024C197.095 17.8901 196.019 16.8237 193.875 16.8237H191.015V18.4746H193.845C194.86 18.4746 195.444 19.0283 195.444 20.0947V30.1436C195.444 31.21 194.86 31.7637 193.845 31.7637H182.135C181.109 31.7637 180.545 31.21 180.545 30.1436V20.0947C180.545 19.0283 181.109 18.4746 182.135 18.4746H184.975V16.8237H182.114C179.971 16.8237 178.895 17.8901 178.895 20.0024V30.2358C178.895 32.3481 179.971 33.4146 182.114 33.4146Z" fill="#2E7CF6"/>
<path d="M104.919 31.5073C105.186 31.5073 105.411 31.4048 105.585 31.2305L113.717 23.2837C113.912 23.0889 114.014 22.853 114.014 22.5967C114.014 22.3301 113.912 22.084 113.717 21.9097L105.596 13.9731C105.411 13.7886 105.186 13.686 104.919 13.686C104.386 13.686 103.986 14.0962 103.986 14.6294C103.986 14.8755 104.088 15.1216 104.252 15.2959L111.717 22.5967L104.252 29.8975C104.088 30.0718 103.986 30.3076 103.986 30.564C103.986 31.0972 104.386 31.5073 104.919 31.5073Z" fill="#CECECE"/>
<path d="M33.4146 31.2202C33.5889 31.3945 33.8145 31.4971 34.0811 31.4971C34.6143 31.4971 35.0142 31.0972 35.0142 30.564C35.0142 30.3076 34.9116 30.0718 34.7476 29.8975L27.2827 22.5967L34.7476 15.2959C34.9116 15.1216 35.0142 14.8755 35.0142 14.6294C35.0142 14.0962 34.6143 13.686 34.0811 13.686C33.8145 13.686 33.5889 13.7886 33.4146 13.9629L25.2935 21.9097C25.0986 22.0737 24.9858 22.3301 24.9858 22.5967C24.9858 22.853 25.0884 23.0889 25.2832 23.2837L33.4146 31.2202Z" fill="#2E7CF6"/>
<defs>
<filter id="filter0_bd_2242_13794" x="-20" y="-19" width="415" height="123" filterUnits="userSpaceOnUse" color-interpolation-filters="sRGB">
<feFlood flood-opacity="0" result="BackgroundImageFix"/>
<feGaussianBlur in="BackgroundImage" stdDeviation="10"/>
<feComposite in2="SourceAlpha" operator="in" result="effect1_backgroundBlur_2242_13794"/>
<feColorMatrix in="SourceAlpha" type="matrix" values="0 0 0 0 0 0 0 0 0 0 0 0 0 0 0 0 0 0 127 0" result="hardAlpha"/>
<feOffset dy="-0.5"/>
<feColorMatrix type="matrix" values="0 0 0 0 0 0 0 0 0 0 0 0 0 0 0 0 0 0 0.3 0"/>
<feBlend mode="normal" in2="effect1_backgroundBlur_2242_13794" result="effect2_dropShadow_2242_13794"/>
<feBlend mode="normal" in="SourceGraphic" in2="effect2_dropShadow_2242_13794" result="shape"/>
</filter>
</defs>
</svg>
