<svg width="375" height="95" viewBox="0 0 375 95" fill="none" xmlns="http://www.w3.org/2000/svg">
<g filter="url(#filter0_bd_2242_13781)">
<path fill-rule="evenodd" clip-rule="evenodd" d="M0 0H375V94H0V0Z" fill="#F9F9F9" fill-opacity="0.94"/>
</g>
<rect x="10" y="48" width="355" height="36" rx="10" fill="#767680" fill-opacity="0.12"/>
<path d="M348.578 65.415C348.798 65.415 348.965 65.3447 349.097 65.2129L352.516 61.7676C352.674 61.6094 352.744 61.4336 352.744 61.2314C352.744 61.0381 352.665 60.8447 352.516 60.6953L349.097 57.2236C348.965 57.083 348.798 57.0039 348.578 57.0039C348.183 57.0039 347.875 57.3291 347.875 57.7422C347.875 57.9268 347.945 58.1025 348.068 58.252L350.213 60.3438C349.765 60.2646 349.308 60.2295 348.859 60.2295C344.764 60.2295 341.485 63.499 341.485 67.5947C341.485 71.6904 344.772 74.9863 348.868 74.9863C352.955 74.9863 356.242 71.6904 356.242 67.5947C356.242 67.1641 355.935 66.8477 355.495 66.8477C355.073 66.8477 354.792 67.1641 354.792 67.5947C354.792 70.8906 352.155 73.5361 348.868 73.5361C345.572 73.5361 342.936 70.8906 342.936 67.5947C342.936 64.29 345.563 61.6621 348.859 61.6621C349.466 61.6621 350.011 61.7061 350.494 61.8027L348.077 64.2021C347.945 64.3428 347.875 64.5098 347.875 64.6943C347.875 65.1074 348.183 65.415 348.578 65.415Z" fill="black"/>
<path d="M29.9004 72.1494C30.3838 72.1494 30.6299 71.9561 30.7969 71.4551L31.8076 68.6338H36.6592L37.6787 71.4551C37.8457 71.9561 38.0918 72.1494 38.5664 72.1494C39.0586 72.1494 39.375 71.8506 39.375 71.3848C39.375 71.2266 39.3398 71.0771 39.2783 70.8838L35.4551 60.6621C35.2354 60.082 34.8486 59.8008 34.2422 59.8008C33.6445 59.8008 33.2578 60.082 33.0469 60.6621L29.2148 70.9014C29.1533 71.0947 29.1182 71.2441 29.1182 71.4023C29.1182 71.8594 29.417 72.1494 29.9004 72.1494ZM32.2471 67.2803L34.207 61.752H34.2598L36.2285 67.2803H32.2471ZM20.8652 72.1494C21.2432 72.1494 21.4893 71.9473 21.6211 71.5078L22.2803 69.5566H25.5234L26.1826 71.5078C26.3232 71.9648 26.5693 72.1494 26.9561 72.1494C27.3955 72.1494 27.7031 71.8682 27.7031 71.4551C27.7031 71.2793 27.6592 71.1123 27.5889 70.9189L25.0312 64.0986C24.8203 63.5361 24.4424 63.2549 23.8975 63.2549C23.3701 63.2549 22.9922 63.5186 22.7812 64.0986L20.2236 70.9189C20.1533 71.0947 20.1182 71.2793 20.1182 71.4551C20.1182 71.877 20.4082 72.1494 20.8652 72.1494ZM22.6582 68.4053L23.8008 64.9336H23.9941L25.1455 68.4053H22.6582Z" fill="black"/>
<path d="M115.492 72.4902H121.679C122.526 72.4902 122.943 72.0732 122.943 71.1504V66.3721C122.943 65.5449 122.602 65.1211 121.897 65.0527V63.4326C121.897 60.9922 120.284 59.8096 118.589 59.8096C116.887 59.8096 115.273 60.9922 115.273 63.4326V65.0801C114.624 65.1826 114.228 65.5996 114.228 66.3721V71.1504C114.228 72.0732 114.645 72.4902 115.492 72.4902ZM116.381 63.3027C116.381 61.7168 117.393 60.8691 118.589 60.8691C119.778 60.8691 120.79 61.7168 120.79 63.3027V65.0391L116.381 65.0527V63.3027Z" fill="#4E8B43"/>
<path d="M134.109 72.1484C135.234 72.1484 136.156 71.6562 136.703 70.7578H136.828V72H138.109V66.2344C138.109 64.4844 136.961 63.4297 134.906 63.4297C133.109 63.4297 131.781 64.3203 131.602 65.6719H132.961C133.148 65.0078 133.852 64.625 134.859 64.625C136.117 64.625 136.766 65.1953 136.766 66.2344V67L134.336 67.1484C132.375 67.2656 131.266 68.1328 131.266 69.6406C131.266 71.1797 132.477 72.1484 134.109 72.1484ZM134.359 70.9688C133.383 70.9688 132.656 70.4688 132.656 69.6094C132.656 68.7656 133.219 68.3203 134.5 68.2344L136.766 68.0859V68.8594C136.766 70.0625 135.742 70.9688 134.359 70.9688ZM147.562 66.1562C147.328 64.6562 146.078 63.4297 144.031 63.4297C141.672 63.4297 140.172 65.1328 140.172 67.7578C140.172 70.4375 141.68 72.1484 144.039 72.1484C146.062 72.1484 147.32 71.0078 147.562 69.4609H146.203C145.953 70.4141 145.164 70.9375 144.031 70.9375C142.531 70.9375 141.562 69.7031 141.562 67.7578C141.562 65.8516 142.516 64.6406 144.031 64.6406C145.242 64.6406 145.984 65.3203 146.203 66.1562H147.562ZM149.352 65.8828C149.352 67.1016 150.07 67.7812 151.648 68.1641L153.094 68.5156C153.992 68.7344 154.43 69.125 154.43 69.7031C154.43 70.4766 153.617 71.0156 152.484 71.0156C151.406 71.0156 150.734 70.5625 150.508 69.8516H149.125C149.273 71.25 150.562 72.1484 152.438 72.1484C154.352 72.1484 155.812 71.1094 155.812 69.6016C155.812 68.3906 155.047 67.7031 153.461 67.3203L152.164 67.0078C151.172 66.7656 150.703 66.4062 150.703 65.8281C150.703 65.0781 151.484 64.5703 152.484 64.5703C153.5 64.5703 154.156 65.0156 154.336 65.6875H155.664C155.484 64.3047 154.258 63.4297 152.492 63.4297C150.703 63.4297 149.352 64.4844 149.352 65.8828ZM162.992 68.1016V66.8281H157.867V68.1016H162.992ZM165.469 72H166.812V66.7812C166.812 65.5938 167.664 64.6406 168.766 64.6406C169.828 64.6406 170.523 65.2812 170.523 66.2812V72H171.867V66.5859C171.867 65.5156 172.648 64.6406 173.82 64.6406C175.008 64.6406 175.594 65.25 175.594 66.4922V72H176.938V66.1797C176.938 64.4141 175.977 63.4297 174.258 63.4297C173.094 63.4297 172.133 64.0156 171.68 64.9062H171.555C171.164 64.0312 170.367 63.4297 169.227 63.4297C168.102 63.4297 167.258 63.9688 166.875 64.9062H166.75V63.5781H165.469V72ZM184.969 69.8203C184.617 70.5625 183.883 70.9609 182.797 70.9609C181.367 70.9609 180.438 69.9062 180.367 68.2422V68.1797H186.422V67.6641C186.422 65.0469 185.039 63.4297 182.766 63.4297C180.453 63.4297 178.969 65.1484 178.969 67.7969C178.969 70.4609 180.43 72.1484 182.766 72.1484C184.609 72.1484 185.922 71.2578 186.312 69.8203H184.969ZM182.75 64.6172C184.086 64.6172 184.977 65.6016 185.008 67.0938H180.367C180.469 65.6016 181.406 64.6172 182.75 64.6172ZM194.109 69.8203C193.758 70.5625 193.023 70.9609 191.938 70.9609C190.508 70.9609 189.578 69.9062 189.508 68.2422V68.1797H195.562V67.6641C195.562 65.0469 194.18 63.4297 191.906 63.4297C189.594 63.4297 188.109 65.1484 188.109 67.7969C188.109 70.4609 189.57 72.1484 191.906 72.1484C193.75 72.1484 195.062 71.2578 195.453 69.8203H194.109ZM191.891 64.6172C193.227 64.6172 194.117 65.6016 194.148 67.0938H189.508C189.609 65.6016 190.547 64.6172 191.891 64.6172ZM198.234 61.3984V63.5781H196.875V64.7031H198.234V69.8125C198.234 71.4219 198.93 72.0625 200.664 72.0625C200.93 72.0625 201.188 72.0312 201.453 71.9844V70.8516C201.203 70.875 201.07 70.8828 200.828 70.8828C199.953 70.8828 199.578 70.4609 199.578 69.4688V64.7031H201.453V63.5781H199.578V61.3984H198.234ZM204.188 61.9531C204.703 61.9531 205.125 61.5312 205.125 61.0156C205.125 60.5 204.703 60.0781 204.188 60.0781C203.672 60.0781 203.25 60.5 203.25 61.0156C203.25 61.5312 203.672 61.9531 204.188 61.9531ZM203.516 72H204.859V63.5781H203.516V72ZM207.422 72H208.766V67.0156C208.766 65.5391 209.633 64.6406 210.977 64.6406C212.32 64.6406 212.961 65.3594 212.961 66.875V72H214.305V66.5469C214.305 64.5469 213.25 63.4297 211.359 63.4297C210.07 63.4297 209.25 63.9766 208.828 64.9062H208.703V63.5781H207.422V72ZM220.234 75.2344C222.531 75.2344 223.984 74.0312 223.984 72.1484V63.5781H222.703V64.9141H222.578C222.094 64.0078 221.055 63.4297 219.875 63.4297C217.711 63.4297 216.344 65.1406 216.344 67.6641C216.344 70.1875 217.695 71.875 219.875 71.875C221.031 71.875 221.984 71.3516 222.516 70.4219H222.641V72.0781C222.641 73.3203 221.742 74.0625 220.234 74.0625C219.023 74.0625 218.273 73.6172 218.125 72.9297H216.703C216.906 74.3203 218.203 75.2344 220.234 75.2344ZM220.172 70.6875C218.609 70.6875 217.734 69.5 217.734 67.6641C217.734 65.8281 218.609 64.6406 220.172 64.6406C221.727 64.6406 222.672 65.8281 222.672 67.6641C222.672 69.5 221.734 70.6875 220.172 70.6875ZM227.625 72.0781C228.188 72.0781 228.641 71.6172 228.641 71.0625C228.641 70.5 228.188 70.0469 227.625 70.0469C227.07 70.0469 226.609 70.5 226.609 71.0625C226.609 71.6172 227.07 72.0781 227.625 72.0781ZM237.922 66.1562C237.688 64.6562 236.438 63.4297 234.391 63.4297C232.031 63.4297 230.531 65.1328 230.531 67.7578C230.531 70.4375 232.039 72.1484 234.398 72.1484C236.422 72.1484 237.68 71.0078 237.922 69.4609H236.562C236.312 70.4141 235.523 70.9375 234.391 70.9375C232.891 70.9375 231.922 69.7031 231.922 67.7578C231.922 65.8516 232.875 64.6406 234.391 64.6406C235.602 64.6406 236.344 65.3203 236.562 66.1562H237.922ZM243.367 72.1484C245.766 72.1484 247.25 70.4922 247.25 67.7891C247.25 65.0781 245.766 63.4297 243.367 63.4297C240.969 63.4297 239.484 65.0781 239.484 67.7891C239.484 70.4922 240.969 72.1484 243.367 72.1484ZM243.367 70.9375C241.773 70.9375 240.875 69.7812 240.875 67.7891C240.875 65.7891 241.773 64.6406 243.367 64.6406C244.961 64.6406 245.859 65.7891 245.859 67.7891C245.859 69.7812 244.961 70.9375 243.367 70.9375ZM249.359 72H250.703V66.7812C250.703 65.5938 251.555 64.6406 252.656 64.6406C253.719 64.6406 254.414 65.2812 254.414 66.2812V72H255.758V66.5859C255.758 65.5156 256.539 64.6406 257.711 64.6406C258.898 64.6406 259.484 65.25 259.484 66.4922V72H260.828V66.1797C260.828 64.4141 259.867 63.4297 258.148 63.4297C256.984 63.4297 256.023 64.0156 255.57 64.9062H255.445C255.055 64.0312 254.258 63.4297 253.117 63.4297C251.992 63.4297 251.148 63.9688 250.766 64.9062H250.641V63.5781H249.359V72Z" fill="#4E8B43"/>
<path opacity="0.4" fill-rule="evenodd" clip-rule="evenodd" d="M338.667 18.3333H355.333C356.254 18.3333 357 19.0795 357 20V26C357 26.9205 356.254 27.6667 355.333 27.6667H338.667C337.746 27.6667 337 26.9205 337 26V20C337 19.0795 337.746 18.3333 338.667 18.3333ZM336 20C336 18.5272 337.194 17.3333 338.667 17.3333H355.333C356.806 17.3333 358 18.5273 358 20V26C358 27.4728 356.806 28.6667 355.333 28.6667H338.667C337.194 28.6667 336 27.4728 336 26V20ZM360.328 23C360.328 23.8731 359.805 24.6612 359 25V21C359.805 21.3388 360.328 22.1269 360.328 23Z" fill="black"/>
<rect x="338" y="19.3333" width="18" height="7.33333" rx="1.33333" fill="black"/>
<path fill-rule="evenodd" clip-rule="evenodd" d="M323.33 19.608C325.546 19.6081 327.677 20.4596 329.283 21.9863C329.404 22.1042 329.598 22.1027 329.717 21.983L330.873 20.8163C330.933 20.7556 330.967 20.6734 330.966 20.5878C330.966 20.5022 330.931 20.4204 330.87 20.3603C326.655 16.3208 320.005 16.3208 315.79 20.3603C315.729 20.4203 315.694 20.5021 315.694 20.5877C315.693 20.6733 315.727 20.7556 315.787 20.8163L316.943 21.983C317.062 22.1029 317.256 22.1044 317.377 21.9863C318.983 20.4595 321.114 19.608 323.33 19.608ZM323.33 23.4037C324.548 23.4036 325.722 23.8561 326.624 24.6733C326.746 24.7893 326.939 24.7868 327.058 24.6677L328.212 23.501C328.273 23.4398 328.307 23.3568 328.306 23.2705C328.305 23.1843 328.27 23.102 328.208 23.042C325.459 20.4856 321.204 20.4856 318.455 23.042C318.393 23.102 318.358 23.1843 318.357 23.2706C318.356 23.3569 318.39 23.4399 318.451 23.501L319.605 24.6677C319.724 24.7868 319.917 24.7893 320.039 24.6733C320.941 23.8567 322.114 23.4042 323.33 23.4037ZM325.643 25.9575C325.645 26.044 325.611 26.1274 325.549 26.188L323.552 28.2037C323.493 28.2629 323.414 28.2963 323.33 28.2963C323.247 28.2963 323.167 28.2629 323.109 28.2037L321.111 26.188C321.049 26.1274 321.015 26.0439 321.017 25.9574C321.019 25.8709 321.056 25.789 321.121 25.731C322.396 24.6521 324.264 24.6521 325.54 25.731C325.604 25.7891 325.642 25.871 325.643 25.9575Z" fill="black"/>
<path fill-rule="evenodd" clip-rule="evenodd" d="M309.667 17.6667H308.667C308.114 17.6667 307.667 18.1144 307.667 18.6667V27.3333C307.667 27.8856 308.114 28.3333 308.667 28.3333H309.667C310.219 28.3333 310.667 27.8856 310.667 27.3333V18.6667C310.667 18.1144 310.219 17.6667 309.667 17.6667ZM304 20H305C305.552 20 306 20.4477 306 21V27.3333C306 27.8856 305.552 28.3333 305 28.3333H304C303.448 28.3333 303 27.8856 303 27.3333V21C303 20.4477 303.448 20 304 20ZM300.333 22.3333H299.333C298.781 22.3333 298.333 22.781 298.333 23.3333V27.3333C298.333 27.8856 298.781 28.3333 299.333 28.3333H300.333C300.886 28.3333 301.333 27.8856 301.333 27.3333V23.3333C301.333 22.781 300.886 22.3333 300.333 22.3333ZM295.667 24.3333H294.667C294.114 24.3333 293.667 24.781 293.667 25.3333V27.3333C293.667 27.8856 294.114 28.3333 294.667 28.3333H295.667C296.219 28.3333 296.667 27.8856 296.667 27.3333V25.3333C296.667 24.781 296.219 24.3333 295.667 24.3333Z" fill="black"/>
<path d="M37.8585 29.2393C40.3673 29.2393 41.8575 27.2773 41.8575 23.9482C41.8575 20.6807 40.2716 18.8896 37.9132 18.8896C35.7667 18.8896 34.2491 20.332 34.2491 22.3486C34.2491 24.2422 35.6163 25.623 37.4962 25.623C38.6514 25.623 39.588 25.0898 40.0528 24.1533H40.169C40.1485 26.4707 39.3214 27.7969 37.879 27.7969C37.0313 27.7969 36.3546 27.332 36.1427 26.5801H34.3858C34.6729 28.1865 36.0538 29.2393 37.8585 29.2393ZM37.92 24.2627C36.7716 24.2627 35.9786 23.4561 35.9786 22.2939C35.9786 21.1797 36.8126 20.3252 37.9268 20.3252C39.0411 20.3252 39.8751 21.1934 39.8751 22.3281C39.8751 23.4492 39.0616 24.2627 37.92 24.2627ZM44.6742 22.6152C45.3236 22.6152 45.7679 22.1641 45.7679 21.5557C45.7679 20.9473 45.3236 20.4961 44.6742 20.4961C44.0316 20.4961 43.5804 20.9473 43.5804 21.5557C43.5804 22.1641 44.0316 22.6152 44.6742 22.6152ZM44.6742 27.6328C45.3236 27.6328 45.7679 27.1748 45.7679 26.5732C45.7679 25.9648 45.3236 25.5137 44.6742 25.5137C44.0316 25.5137 43.5804 25.9648 43.5804 26.5732C43.5804 27.1748 44.0316 27.6328 44.6742 27.6328ZM52.3034 29H53.9918V27.1064H55.3248V25.6504H53.9918V19.1357H51.5036C50.1637 21.1729 48.7623 23.4424 47.484 25.6641V27.1064H52.3034V29ZM49.1178 25.5889C50.0817 23.9141 51.2233 22.0889 52.235 20.5439H52.3307V25.6914H49.1178V25.5889ZM59.0849 29H60.8486V19.1357H59.0917L56.5146 20.9473V22.6084L58.9687 20.8721H59.0849V29Z" fill="black"/>
<defs>
<filter id="filter0_bd_2242_13781" x="-20" y="-20" width="415" height="134" filterUnits="userSpaceOnUse" color-interpolation-filters="sRGB">
<feFlood flood-opacity="0" result="BackgroundImageFix"/>
<feGaussianBlur in="BackgroundImage" stdDeviation="10"/>
<feComposite in2="SourceAlpha" operator="in" result="effect1_backgroundBlur_2242_13781"/>
<feColorMatrix in="SourceAlpha" type="matrix" values="0 0 0 0 0 0 0 0 0 0 0 0 0 0 0 0 0 0 127 0" result="hardAlpha"/>
<feOffset dy="0.5"/>
<feColorMatrix type="matrix" values="0 0 0 0 0 0 0 0 0 0 0 0 0 0 0 0 0 0 0.3 0"/>
<feBlend mode="normal" in2="effect1_backgroundBlur_2242_13781" result="effect2_dropShadow_2242_13781"/>
<feBlend mode="normal" in="SourceGraphic" in2="effect2_dropShadow_2242_13781" result="shape"/>
</filter>
</defs>
</svg>
